<svg xmlns="http://www.w3.org/2000/svg" viewBox="0 0 960 420" role="img" aria-labelledby="title desc"><title id="title">カーフレイズの開始姿勢とかかとを上げた姿勢</title><desc id="desc">立位からかかとを持ち上げてつま先立ちになり、ゆっくり下ろす。</desc><defs><marker id="arrow" markerWidth="12" markerHeight="12" refX="10" refY="6" orient="auto"><path d="M0 0L12 6L0 12Z" fill="#79d7a5"/></marker><style>.panel{fill:#171a21;stroke:#2b323d;stroke-width:2}.label{fill:#79d7a5;font:800 21px system-ui,sans-serif}.note{fill:#aeb7c4;font:600 17px system-ui,sans-serif}.body{fill:#dce4eb}.limb{stroke:#dce4eb;stroke-width:22;stroke-linecap:round;stroke-linejoin:round;fill:none}.thin{stroke:#dce4eb;stroke-width:16;stroke-linecap:round;fill:none}.accent{stroke:#79d7a5;stroke-width:8;stroke-linecap:round;fill:none}.floor{stroke:#46505d;stroke-width:5;stroke-linecap:round}.arrow{fill:none;stroke:#79d7a5;stroke-width:8;stroke-linecap:round;marker-end:url(#arrow)}.db{fill:#79d7a5}.tip{fill:#f2f4f7;font:800 21px system-ui,sans-serif}.chair{fill:none;stroke:#6c7784;stroke-width:10;stroke-linecap:round;stroke-linejoin:round}</style></defs><rect width="960" height="420" rx="24" fill="#11151b"/><rect class="panel" x="24" y="24" width="430" height="372" rx="20"/><rect class="panel" x="506" y="24" width="430" height="372" rx="20"/><text class="label" x="52" y="62">① 開始</text><text class="note" x="52" y="90">足裏全体を床につける</text><circle class="body" cx="240" cy="132" r="26"/><line class="limb" x1="240" y1="160" x2="240" y2="250"/><line class="limb" x1="232" y1="248" x2="206" y2="318"/><line class="limb" x1="248" y1="248" x2="274" y2="318"/><line class="floor" x1="130" y1="324" x2="350" y2="324"/><line class="thin" x1="222" y1="190" x2="194" y2="245"/><line class="thin" x1="258" y1="190" x2="286" y2="245"/><text class="label" x="534" y="62">② 動作</text><text class="note" x="534" y="90">かかとを真上へ上げる</text><circle class="body" cx="720" cy="116" r="26"/><line class="limb" x1="720" y1="144" x2="720" y2="234"/><line class="limb" x1="712" y1="232" x2="686" y2="302"/><line class="limb" x1="728" y1="232" x2="754" y2="302"/><line class="floor" x1="612" y1="324" x2="832" y2="324"/><line class="thin" x1="686" y1="302" x2="704" y2="320"/><line class="thin" x1="754" y1="302" x2="772" y2="320"/><line class="thin" x1="702" y1="174" x2="674" y2="229"/><line class="thin" x1="738" y1="174" x2="766" y2="229"/><path class="arrow" d="M646 274C643 238 652 210 668 191"/><text class="tip" x="480" y="408" text-anchor="middle">上で1秒止め、反動で弾まずゆっくり下ろす</text></svg>